# xmcd CD database file
#
# Track frame offsets:
#	150
#	23550
#	41175
#	57750
#	89025
#	105975
#	122625
#	138975
#	157650
#	180600
#	211125
#	236325
#
# Disc length: 3583 seconds
#
# Revision: 0
# Processed by: cddbd v1.5.1PL0 Copyright (c) Steve Scherf et al.
# Submitted via: CDex 1.60beta1
#
DISCID=910dfd0c
DTITLE=Various Artist - A Walk With Nature
DYEAR=2002
DGENRE=New Age
TTITLE0=Stevan Pasero/Clare de Lune
TTITLE1=Stevan Pasero/Prayer for the Rainforest
TTITLE2=Stevan Pasero/Blue Moon, Red Nights
TTITLE3=Marc Teicholz/Recuerdos de la Alhambra
TTITLE4=Stevan Pasero/Theme from Swan Lake
TTITLE5=Marc Teicholz/Cavatina
TTITLE6=Stevan Pasero/My Wild Rose
TTITLE7=Marc Teicholz/Jesu, Joy of Man's Desiring
TTITLE8=Stevan Pasero/Valley of the Archer
TTITLE9=Stevan Pasero/Silhouettes of Dawn
TTITLE10=Stevan Pasero/Romanza de Amor Fantasia
TTITLE11=Stevan Pasero/You Warm Shaded Forest
EXTD=YEAR: 2002
EXTT0=
EXTT1=
EXTT2=
EXTT3=
EXTT4=
EXTT5=
EXTT6=
EXTT7=
EXTT8=
EXTT9=
EXTT10=
EXTT11=
PLAYORDER=
